<?xml version="1.0" encoding="UTF-8" standalone="no"?>
<!-- Created with Inkscape (http://www.inkscape.org/) -->

<svg
   width="16"
   height="16"
   viewBox="0 0 16 16"
   version="1.1"
   id="svg1"
   xmlns:xlink="http://www.w3.org/1999/xlink"
   xmlns="http://www.w3.org/2000/svg"
   xmlns:svg="http://www.w3.org/2000/svg">
  <defs
     id="defs1">
    <linearGradient
       id="linearGradient19">
      <stop
         style="stop-color:#2576cc;stop-opacity:1;"
         offset="0.32074574"
         id="stop19" />
      <stop
         style="stop-color:#00508a;stop-opacity:1;"
         offset="0.4188579"
         id="stop20" />
    </linearGradient>
    <linearGradient
       xlink:href="#linearGradient19"
       id="linearGradient20"
       x1="1.3092668"
       y1="5.2913384"
       x2="11.783401"
       y2="5.2913384"
       gradientUnits="userSpaceOnUse" />
  </defs>
  <g
     id="layer1">
    <path
       style="fill:url(#linearGradient20);stroke:none;stroke-width:24;stroke-linecap:round;stroke-linejoin:round"
       d="M 0,2.1201153 V 6.0472441 L 1.3711206e-8,8.6069659 A 0.80349885,0.80349885 60.000001 0 0 0.40174941,9.3028163 L 3.398358,11.032909 a 0.3529615,0.3529615 150 0 0 0.5294423,-0.305673 l 0,-1.8987088 A 0.88952339,0.88952339 59.999999 0 0 3.4830386,8.0581773 L 2.9641634,7.7586046 A 0.69125973,0.69125973 59.999999 0 1 2.6185335,7.1599561 V 4.8316753 a 0.1104464,0.1104464 159.5533 0 1 0.193936,-0.072304 l 2.2452178,2.5925541 a 0.23729708,0.23729708 0 0 0 0.3587594,0 L 7.6195786,4.8079677 a 0.13441426,0.13441426 20.446698 0 1 0.2360219,0.087995 V 7.2130132 A 0.59936219,0.59936219 120 0 1 7.5559194,7.7320761 L 7.025498,8.038315 A 0.95832846,0.95832846 120 0 0 6.5463338,8.8682518 v 1.8795942 a 0.34106232,0.34106232 29.999998 0 0 0.5115935,0.295368 L 10.042419,9.3201168 A 0.86342938,0.86342938 120 0 0 10.474134,8.5723651 V 6.0472441 2.0756194 A 0.97654479,0.97654479 60 0 0 9.9858616,1.2299068 L 8.3712471,0.29770868 A 0.72093151,0.72093151 170.4467 0 0 7.4658083,0.45009322 L 5.4484269,2.7795646 a 0.27960284,0.27960284 0 0 1 -0.4227198,0 L 3.0219657,0.46584343 A 0.74615921,0.74615921 9.5533027 0 0 2.0848428,0.30812646 L 0.52680695,1.2076589 A 1.0536139,1.0536139 120 0 0 0,2.1201153 Z"
       id="path15"
       transform="matrix(1.5275726,0,0,1.4695366,0,-0.29555641)" />
  </g>
</svg>
