<?xml version="1.0" encoding="UTF-8" standalone="no"?>
<!-- Created with Inkscape (http://www.inkscape.org/) -->

<svg
   width="34"
   height="16"
   viewBox="0 0 34 16"
   version="1.1"
   id="svg1"
   xmlns:xlink="http://www.w3.org/1999/xlink"
   xmlns="http://www.w3.org/2000/svg"
   xmlns:svg="http://www.w3.org/2000/svg">
  <defs
     id="defs1">
    <linearGradient
       id="linearGradient21">
      <stop
         style="stop-color:#2576cc;stop-opacity:1;"
         offset="0.45077208"
         id="stop21" />
      <stop
         style="stop-color:#00508a;stop-opacity:1;"
         offset="0.53312224"
         id="stop22" />
    </linearGradient>
    <linearGradient
       id="linearGradient19">
      <stop
         style="stop-color:#2576cc;stop-opacity:1;"
         offset="0.32081446"
         id="stop19" />
      <stop
         style="stop-color:#00508a;stop-opacity:1;"
         offset="0.41313002"
         id="stop20" />
    </linearGradient>
    <linearGradient
       xlink:href="#linearGradient19"
       id="linearGradient20"
       x1="1.3092668"
       y1="5.2913384"
       x2="11.783401"
       y2="5.2913384"
       gradientUnits="userSpaceOnUse" />
    <linearGradient
       xlink:href="#linearGradient21"
       id="linearGradient22"
       x1="18.373287"
       y1="8.0398283"
       x2="34.084488"
       y2="8.0398283"
       gradientUnits="userSpaceOnUse" />
  </defs>
  <g
     id="layer1">
    <path
       style="fill:url(#linearGradient20);stroke:none;stroke-width:24;stroke-linecap:round;stroke-linejoin:round"
       d="M 0,2.511811 1.5202141e-8,8.6069659 A 0.80349885,0.80349885 60.000001 0 0 0.40174941,9.3028163 L 3.398358,11.032909 a 0.3529615,0.3529615 150 0 0 0.5294423,-0.305673 l 0,-1.8987088 A 0.88952339,0.88952339 59.999999 0 0 3.4830386,8.0581773 L 2.9641634,7.7586046 A 0.69125973,0.69125973 59.999999 0 1 2.6185335,7.1599561 V 4.8316753 a 0.1104464,0.1104464 159.5533 0 1 0.193936,-0.072304 l 2.2452178,2.5925541 a 0.23729708,0.23729708 0 0 0 0.3587594,0 L 7.6195786,4.8079677 a 0.13441426,0.13441426 20.446698 0 1 0.2360219,0.087995 V 7.2130132 A 0.59936219,0.59936219 120 0 1 7.5559194,7.7320761 L 7.025498,8.038315 A 0.95832846,0.95832846 120 0 0 6.5463338,8.8682518 v 1.8795942 a 0.34106232,0.34106232 29.999998 0 0 0.5115935,0.295368 L 10.042419,9.3201168 A 0.86342938,0.86342938 120 0 0 10.474134,8.572365 l 0,-6.060554 a 1.7320508,1.7320508 60 0 0 -0.8660254,-1.5 L 8.3712471,0.29770868 A 0.72093151,0.72093151 170.4467 0 0 7.4658083,0.45009322 L 5.4484269,2.7795646 a 0.27960284,0.27960284 0 0 1 -0.4227198,0 L 3.0219657,0.46584343 A 0.74615921,0.74615921 9.5533027 0 0 2.0848428,0.30812646 L 0.86602541,1.011811 A 1.7320508,1.7320508 120 0 0 0,2.511811 Z"
       id="path15"
       transform="matrix(1.5275726,0,0,1.4695366,0,-0.29555641)" />
    <path
       style="fill:url(#linearGradient22);stroke:none;stroke-width:24;stroke-linecap:round;stroke-linejoin:round"
       d="M 21.761389,0.37458711 19.239313,1.8307085 a 1.7320509,1.7320509 120 0 0 -0.866025,1.5 v 7.0708665 a 1.7320507,1.7320507 59.999999 0 0 0.866025,1.5 l 6.395738,3.69258 a 1.1876765,1.1876765 180 0 0 1.187676,0 l 6.395737,-3.69258 a 1.7320509,1.7320509 120 0 0 0.866025,-1.5 V 3.3307085 a 1.7320509,1.7320509 60.000001 0 0 -0.866025,-1.5 L 30.702978,0.37839208 A 0.36419262,0.36419262 150 0 0 30.156689,0.69379213 V 8.3734246 a 1.3171096,1.3171096 120 0 1 -0.658555,1.1406503 l -2.731398,1.5769741 a 1.0756945,1.0756945 180 0 1 -1.075694,0 L 22.938454,9.5018415 A 1.2747319,1.2747319 60 0 1 22.301088,8.3978913 l 0,-7.71170911 A 0.35979902,0.35979902 29.999999 0 0 21.761389,0.37458711 Z"
       id="path20"
       transform="matrix(1.0183817,0,0,1.03715,-0.71101985,-0.33850831)" />
  </g>
</svg>
